HIERARCHY
ROOT Hips
{
	OFFSET 0.000000 0.000000 0.000000
	CHANNELS 6 Xposition Yposition Zposition Zrotation Yrotation Xrotation 
	JOINT LHipJoint
	{
		OFFSET 0.000000 0.000000 0.000000
		CHANNELS 3 Zrotation Yrotation Xrotation
		JOINT LeftUpLeg
		{
			OFFSET 1.363060 -1.794630 0.839290
			CHANNELS 3 Zrotation Yrotation Xrotation
			JOINT LeftLeg
			{
				OFFSET 2.448110 -6.726130 0.000000
				CHANNELS 3 Zrotation Yrotation Xrotation
				JOINT LeftFoot
				{
					OFFSET 2.562200 -7.039590 0.000000
					CHANNELS 3 Zrotation Yrotation Xrotation
					JOINT LeftToeBase
					{
						OFFSET 0.157640 -0.433110 2.322550
						CHANNELS 3 Zrotation Yrotation Xrotation
						End Site
						{
							OFFSET 0.000000 0.000000 0.000000
						}
					}
				}
			}
		}
	}
	JOINT RHipJoint
	{
		OFFSET 0.000000 0.000000 0.000000
		CHANNELS 3 Zrotation Yrotation Xrotation
		JOINT RightUpLeg
		{
			OFFSET -1.305520 -1.794630 0.839290
			CHANNELS 3 Zrotation Yrotation Xrotation
			JOINT RightLeg
			{
				OFFSET -2.542530 -6.985550 0.000000
				CHANNELS 3 Zrotation Yrotation Xrotation
				JOINT RightFoot
				{
					OFFSET -2.568260 -7.056230 0.000000
					CHANNELS 3 Zrotation Yrotation Xrotation
					JOINT RightToeBase
					{
						OFFSET -0.164730 -0.452590 2.363150
						CHANNELS 3 Zrotation Yrotation Xrotation
						End Site
						{
							OFFSET 0.000000 0.000000 0.000000
						}
					}
				}
			}
		}
	}
	JOINT LowerBack
	{
		OFFSET 0.000000 0.000000 0.000000
		CHANNELS 3 Zrotation Yrotation Xrotation
		JOINT Spine
		{
			OFFSET 0.028270 2.035590 -0.193380
			CHANNELS 3 Zrotation Yrotation Xrotation
			JOINT Spine1
			{
				OFFSET 0.056720 2.048850 -0.042750
				CHANNELS 3 Zrotation Yrotation Xrotation
				JOINT Neck
				{
					OFFSET 0.000000 0.000000 0.000000
					CHANNELS 3 Zrotation Yrotation Xrotation
					JOINT Neck1
					{
						OFFSET -0.054170 1.746240 0.172020
						CHANNELS 3 Zrotation Yrotation Xrotation
						JOINT Head
						{
							OFFSET 0.104070 1.761360 -0.123970
							CHANNELS 3 Zrotation Yrotation Xrotation
							End Site
							{
								OFFSET 0.000000 0.000000 0.000000
							}
						}
					}
				}
				JOINT LeftShoulder
				{
					OFFSET 0.000000 0.000000 0.000000
					CHANNELS 3 Zrotation Yrotation Xrotation
					JOINT LeftArm
					{
						OFFSET 3.362410 1.200890 -0.311210
						CHANNELS 3 Zrotation Yrotation Xrotation
						JOINT LeftForeArm
						{
							OFFSET 4.983000 -0.000000 -0.000000
							CHANNELS 3 Zrotation Yrotation Xrotation
							JOINT LeftHand
							{
								OFFSET 3.483560 -0.000000 -0.000000
								CHANNELS 3 Zrotation Yrotation Xrotation
								JOINT LeftFingerBase
								{
									OFFSET 0.000000 0.000000 0.000000
									CHANNELS 3 Zrotation Yrotation Xrotation
									JOINT LeftHandIndex1
									{
										OFFSET 0.715260 -0.000000 -0.000000
										CHANNELS 3 Zrotation Yrotation Xrotation
										End Site
										{
											OFFSET 0.000000 0.000000 0.000000
										}
									}
								}
								JOINT LThumb
								{
									OFFSET 0.000000 0.000000 0.000000
									CHANNELS 3 Zrotation Yrotation Xrotation
									End Site
									{
										OFFSET 0.000000 0.000000 0.000000
									}
								}
							}
						}
					}
				}
				JOINT RightShoulder
				{
					OFFSET 0.000000 0.000000 0.000000
					CHANNELS 3 Zrotation Yrotation Xrotation
					JOINT RightArm
					{
						OFFSET -3.136600 1.374050 -0.404650
						CHANNELS 3 Zrotation Yrotation Xrotation
						JOINT RightForeArm
						{
							OFFSET -5.241900 -0.000000 -0.000000
							CHANNELS 3 Zrotation Yrotation Xrotation
							JOINT RightHand
							{
								OFFSET -3.444170 -0.000000 -0.000000
								CHANNELS 3 Zrotation Yrotation Xrotation
								JOINT RightFingerBase
								{
									OFFSET 0.000000 0.000000 0.000000
									CHANNELS 3 Zrotation Yrotation Xrotation
									JOINT RightHandIndex1
									{
										OFFSET -0.622530 -0.000000 -0.000000
										CHANNELS 3 Zrotation Yrotation Xrotation
										End Site
										{
											OFFSET 0.000000 0.000000 0.000000
										}
									}
								}
								JOINT RThumb
								{
									OFFSET 0.000000 0.000000 0.000000
									CHANNELS 3 Zrotation Yrotation Xrotation
									End Site
									{
										OFFSET 0.000000 0.000000 0.000000
									}
								}
							}
						}
					}
				}
			}
		}
	}
}
MOTION
Frames: 11
Frame Time: 0.008333
0.327701 17.828117 -14.163192 -1.888851 -0.805354 7.871953 -1.261031 0.237733 0.973939 -14.558273 2.963332 -13.932978 -0.491109 5.213137 14.347726 -1.230193 7.595454 -1.184733 0.018800 -0.885900 -2.434800 -0.881208 -0.489195 -0.067646 19.445845 1.991290 -13.222981 -0.215953 -6.325096 17.896862 -0.211661 -0.310386 -4.445373 -0.426700 -4.192200 11.618000 1.051136 -0.542775 -2.964508 1.492371 -0.796254 -2.189100 1.292703 -0.799940 7.441788 -3.715467 -0.850961 -11.315217 3.660095 -0.599485 30.242663 0.897400 0.225600 11.928900 9.437782 5.077961 0.090433 -99.945157 -18.872293 42.165504 7.552750 -16.472168 -1.071428 -0.072639 -0.633085 -3.168420 27.459788 -6.397035 -2.959300 -7.125000 0.000000 0.000000 0.640200 23.575600 -0.330800 -8.526695 -4.219320 0.020530 97.439054 12.362370 22.608630 -9.588969 20.825986 -1.961612 0.652802 0.829249 31.780831 -21.450021 -23.508295 9.352000 7.125000 0.000000 0.000000 8.603700 -56.000200 -2.334000 
0.329624 17.830141 -14.154792 -1.889811 -0.780798 7.892399 -1.262933 0.241244 0.979938 -14.563668 2.980391 -13.901341 -0.498163 5.186944 14.278735 -1.220686 7.551916 -1.175594 0.018100 -0.868500 -2.387000 -0.877534 -0.494152 -0.062768 19.438719 1.935239 -13.178924 -0.206001 -6.292473 17.809357 -0.215918 -0.283771 -4.450367 -0.435700 -4.235800 11.741100 1.062357 -0.539949 -3.074864 1.488974 -0.797146 -2.207214 1.269146 -0.797119 7.426767 -3.697874 -0.859316 -11.257962 3.671735 -0.624960 30.271099 0.895500 0.218100 11.925400 9.442715 5.071646 0.086718 -99.951627 -18.966105 42.391228 7.590718 -16.536268 -1.083771 -0.069492 -0.632798 -3.313254 27.417277 -6.339065 -2.924300 -7.125000 0.000000 0.000000 0.610100 23.642400 -0.314200 -8.533171 -4.214496 0.015986 97.459417 12.430010 22.778691 -9.670321 20.955295 -1.994434 0.652471 0.824354 31.600726 -21.542493 -23.346389 9.339100 7.125000 0.000000 0.000000 8.429400 -55.849000 -2.255200 
0.330939 17.832064 -14.146999 -1.881797 -0.758092 7.911648 -1.266037 0.244081 0.985630 -14.576796 2.993494 -13.870890 -0.504543 5.162898 14.214552 -1.216563 7.533496 -1.167607 0.017900 -0.863400 -2.373000 -0.875152 -0.498450 -0.058400 19.425845 1.901535 -13.142691 -0.197956 -6.265940 17.738094 -0.214440 -0.289376 -4.433443 -0.436100 -4.237400 11.745600 1.050926 -0.551515 -3.164893 1.491617 -0.816247 -2.224532 1.281189 -0.806394 7.409992 -3.738191 -0.859296 -11.236350 3.702565 -0.628095 30.295251 0.917200 0.215200 11.931000 9.446051 5.065015 0.082195 -99.989944 -19.031033 42.490263 7.648326 -16.633816 -1.101896 -0.068516 -0.632262 -3.361969 27.426753 -6.394207 -2.954200 -7.125000 0.000000 0.000000 0.614300 23.579200 -0.317300 -8.539623 -4.209636 0.009884 97.453432 12.513838 22.973890 -9.752140 21.081701 -2.026134 0.649188 0.825110 31.405543 -21.530343 -23.364274 9.339300 7.125000 0.000000 0.000000 8.448700 -55.863100 -2.263300 
0.332356 17.833279 -14.139409 -1.883063 -0.733453 7.920017 -1.267919 0.247600 0.990837 -14.580507 3.015696 -13.835436 -0.510434 5.139965 14.154350 -1.208383 7.496624 -1.147626 0.017400 -0.852600 -2.343300 -0.872860 -0.502870 -0.055123 19.422970 1.879807 -13.086588 -0.189905 -6.239143 17.666435 -0.214456 -0.290394 -4.445393 -0.445900 -4.284500 11.878600 1.055222 -0.555729 -3.255344 1.491669 -0.825826 -2.235177 1.271724 -0.809765 7.413436 -3.712328 -0.859932 -11.202951 3.690957 -0.633237 30.307554 0.905600 0.215400 11.925900 9.451209 5.061771 0.079871 -100.012772 -19.080670 42.703013 7.705712 -16.733646 -1.119728 -0.065334 -0.632716 -3.534994 27.443606 -6.364579 -2.940600 -7.125000 0.000000 0.000000 0.627100 23.612000 -0.323500 -8.543742 -4.206012 0.005477 97.467253 12.597381 23.139811 -9.825402 21.195856 -2.054490 0.650778 0.821550 31.232896 -21.678718 -23.265718 9.375600 7.125000 0.000000 0.000000 8.243300 -55.790800 -2.193300 
0.333874 17.834493 -14.131818 -1.884407 -0.707845 7.929526 -1.269684 0.250805 0.995752 -14.583616 3.029979 -13.801993 -0.515551 5.119884 14.101529 -1.201859 7.466704 -1.138539 0.017100 -0.843800 -2.319000 -0.870766 -0.507095 -0.051707 19.420144 1.858937 -13.035762 -0.182825 -6.215018 17.602305 -0.212913 -0.300514 -4.453904 -0.451700 -4.311900 11.955900 1.059143 -0.560379 -3.343680 1.492022 -0.835877 -2.246913 1.265080 -0.813406 7.412687 -3.705022 -0.861099 -11.173014 3.695790 -0.640651 30.324600 0.905000 0.213900 11.924100 9.455608 5.057686 0.077136 -100.038952 -19.133033 42.889896 7.761644 -16.829501 -1.137229 -0.063300 -0.632812 -3.667587 27.455178 -6.382013 -2.951000 -7.125000 0.000000 0.000000 0.634600 23.591800 -0.327600 -8.548592 -4.202335 0.000799 97.476418 12.680619 23.304782 -9.898617 21.309736 -2.083253 0.652314 0.817644 31.060242 -21.823381 -23.151069 9.403900 7.125000 0.000000 0.000000 8.035500 -55.700500 -2.119800 
0.335190 17.835404 -14.124734 -1.889863 -0.684272 7.935793 -1.271060 0.253893 1.000155 -14.582127 3.042162 -13.769976 -0.519654 5.103114 14.058049 -1.196187 7.440525 -1.132044 0.016800 -0.837300 -2.301200 -0.869015 -0.511088 -0.048674 19.422393 1.848194 -12.981717 -0.176183 -6.192618 17.542584 -0.209866 -0.320235 -4.464821 -0.456300 -4.333400 12.016400 1.066974 -0.562989 -3.424806 1.492595 -0.843204 -2.256772 1.257831 -0.815593 7.414389 -3.698109 -0.861926 -11.144411 3.702688 -0.648174 30.338812 0.905300 0.212600 11.921300 9.459842 5.054054 0.074924 -100.067868 -19.173862 43.085698 7.819936 -16.929356 -1.155413 -0.061174 -0.633050 -3.802363 27.470806 -6.394834 -2.959400 -7.125000 0.000000 0.000000 0.645100 23.576800 -0.333200 -8.553029 -4.199068 -0.003575 97.485904 12.766757 23.453833 -9.965348 21.412689 -2.109331 0.653858 0.814152 30.904472 -21.960065 -23.054899 9.434500 7.125000 0.000000 0.000000 7.845200 -55.627700 -2.055300 
0.336506 17.836011 -14.117953 -1.898211 -0.664081 7.938089 -1.271970 0.256868 1.004090 -14.577136 3.051736 -13.739413 -0.522639 5.090420 14.025689 -1.191520 7.418669 -1.130827 0.016600 -0.832400 -2.287700 -0.867545 -0.514895 -0.045896 19.428080 1.844052 -12.925716 -0.170200 -6.172114 17.487922 -0.206271 -0.343620 -4.478364 -0.459800 -4.349900 12.063100 1.077893 -0.562770 -3.497946 1.492981 -0.846617 -2.265291 1.249419 -0.815668 7.416010 -3.690456 -0.862977 -11.112482 3.710742 -0.656849 30.352202 0.905800 0.211000 11.916900 9.463946 5.050770 0.073331 -100.098108 -19.202088 43.295599 7.878532 -17.029616 -1.173738 -0.058968 -0.633390 -3.943180 27.487538 -6.402873 -2.965500 -7.125000 0.000000 0.000000 0.656600 23.567200 -0.339400 -8.557056 -4.196098 -0.007542 97.496415 12.853242 23.586716 -10.024530 21.503521 -2.132468 0.656304 0.810056 30.770040 -22.116665 -22.946532 9.469800 7.125000 0.000000 0.000000 7.628900 -55.546500 -1.983100 
0.337922 17.836315 -14.111679 -1.909675 -0.647132 7.936636 -1.272469 0.259677 1.007672 -14.569233 3.060280 -13.712086 -0.524216 5.082463 14.006000 -1.187564 7.400123 -1.134397 0.016600 -0.830900 -2.283500 -0.866454 -0.518484 -0.043262 19.437369 1.844744 -12.870001 -0.165081 -6.154079 17.440309 -0.202494 -0.369037 -4.493997 -0.461600 -4.358300 12.087000 1.091145 -0.560167 -3.559092 1.493602 -0.846451 -2.273353 1.241974 -0.813813 7.412510 -3.684578 -0.864419 -11.076726 3.720624 -0.666473 30.365639 0.907100 0.208800 11.911900 9.467968 5.047503 0.072164 -100.133133 -19.215597 43.509378 7.936103 -17.127585 -1.191760 -0.056915 -0.633706 -4.078194 27.503982 -6.413898 -2.973000 -7.125000 0.000000 0.000000 0.668000 23.554200 -0.345400 -8.560521 -4.193042 -0.011270 97.504582 12.937287 23.704540 -10.076597 21.582520 -2.152776 0.657324 0.807850 30.656437 -22.213930 -22.902775 9.500000 7.125000 0.000000 0.000000 7.504200 -55.520000 -1.945600 
0.339238 17.836214 -14.105910 -1.920935 -0.634829 7.930077 -1.272505 0.262258 1.010901 -14.561956 3.072292 -13.688912 -0.524454 5.079167 13.999769 -1.183456 7.380278 -1.143759 0.016500 -0.830000 -2.281100 -0.865733 -0.521904 -0.040813 19.446304 1.845124 -12.815747 -0.160876 -6.138857 17.400897 -0.199616 -0.388499 -4.511399 -0.462700 -4.363000 12.100300 1.103581 -0.555193 -3.607862 1.494192 -0.842865 -2.280586 1.236378 -0.810370 7.405160 -3.681991 -0.866379 -11.037266 3.731601 -0.676752 30.380300 0.909600 0.206200 11.906600 9.471836 5.044358 0.071568 -100.173027 -19.215045 43.724554 7.993627 -17.225368 -1.210015 -0.054283 -0.634051 -4.215939 27.503873 -6.393031 -2.961900 -7.125000 0.000000 0.000000 0.668000 23.578000 -0.345100 -8.563562 -4.189975 -0.014687 97.510693 13.020747 23.807481 -10.121266 21.649248 -2.170063 0.657634 0.806563 30.565356 -22.274881 -22.891116 9.524600 7.125000 0.000000 0.000000 7.432200 -55.519500 -1.926700 
0.340554 17.835809 -14.100647 -1.933829 -0.624823 7.919475 -1.272014 0.264526 1.013683 -14.553832 3.090146 -13.672645 -0.523261 5.081103 14.007662 -1.178330 7.355860 -1.156529 0.016700 -0.833500 -2.290700 -0.865444 -0.525080 -0.038624 19.456915 1.841673 -12.764923 -0.157788 -6.126666 17.370220 -0.198237 -0.398862 -4.529886 -0.463200 -4.365500 12.107300 1.117295 -0.548778 -3.644700 1.494956 -0.836990 -2.286837 1.231354 -0.805744 7.394843 -3.676666 -0.868539 -10.994974 3.739849 -0.687050 30.395633 0.910200 0.203600 11.901100 9.475908 5.041413 0.071477 -100.218495 -19.205116 43.933907 8.050532 -17.321565 -1.228689 -0.051147 -0.634326 -4.362803 27.475576 -6.348387 -2.935100 -7.125000 0.000000 0.000000 0.648000 23.629900 -0.333900 -8.566053 -4.186774 -0.017868 97.513992 13.101140 23.904621 -10.163045 21.711063 -2.186100 0.657695 0.805733 30.481524 -22.322409 -22.894659 9.548500 7.125000 0.000000 0.000000 7.381200 -55.532200 -1.915600 
0.341869 17.834999 -14.095992 -1.947105 -0.618007 7.904852 -1.271060 0.266432 1.016003 -14.545570 3.112331 -13.663113 -0.520668 5.087893 14.028894 -1.172645 7.328581 -1.172472 0.016900 -0.838600 -2.304800 -0.865555 -0.527968 -0.036652 19.467797 1.837322 -12.717567 -0.155700 -6.117697 17.348847 -0.197991 -0.402569 -4.549537 -0.463200 -4.365500 12.107400 1.130564 -0.541033 -3.669710 1.495813 -0.828855 -2.292328 1.227308 -0.799980 7.380781 -3.667559 -0.870845 -10.948982 3.743479 -0.696890 30.412950 0.908000 0.201400 11.895700 9.480302 5.038819 0.071905 -100.267912 -19.183106 44.131237 8.111008 -17.424038 -1.249145 -0.046908 -0.634600 -4.529645 27.411167 -6.256479 -2.879400 -7.125000 0.000000 0.000000 0.602400 23.736800 -0.309000 -8.567947 -4.183456 -0.020767 97.514611 13.176089 23.994315 -10.202157 21.768549 -2.201287 0.657487 0.805150 30.409743 -22.353812 -22.905499 9.567300 7.125000 0.000000 0.000000 7.350600 -55.549300 -1.910700 
